<svg xmlns="http://www.w3.org/2000/svg" width="108" height="26" fill="none"><g fill="#A7A7A7" clip-path="url(#a)"><g clip-path="url(#b)"><path d="M4.952.406H0V15.35a4.952 4.952 0 0 0 4.952 4.952 4.974 4.974 0 0 0 4.974 4.974h9.883v-4.974H4.953V.406z"/><path d="M26 10.332a4.952 4.952 0 0 0-4.952-4.952A4.974 4.974 0 0 0 16.074.406H6.19V5.38h14.858v19.896H26V10.332z"/></g><path d="M81.954 9.484v11.78h2.91V9.485h-2.91zm-.139-5.151v3.21h3.165v-3.21h-3.165zm6.95 16.931V11.77H86.64V9.483h2.125V8.398c0-1.294.354-2.28 1.063-2.957.723-.693 1.801-1.04 3.233-1.04.324 0 .593.016.809.047.215.03.423.077.624.138V6.85a1.389 1.389 0 0 0-.416-.092 3.25 3.25 0 0 0-.578-.047c-.616 0-1.078.154-1.386.462-.292.293-.439.724-.439 1.294v1.016h2.565v2.287h-2.564v9.494h-2.91zM97.175 26l2.396-5.373-4.568-11.143h3.165l2.956 7.825 2.957-7.825h3.096L100.131 26h-2.956zm-20.198-4.736-2.828-4.107-2.97 4.107h-3.21l4.731-6.132-4.246-5.648h3.303l2.53 3.688 2.598-3.688h3.234l-4.371 5.73 4.533 6.05h-3.304z"/><path fill-rule="evenodd" d="M58.676 20.71c.94.524 2.033.786 3.28.786 1.386 0 2.533-.324 3.442-.97.924-.647 1.578-1.525 1.963-2.634h-2.748a2.135 2.135 0 0 1-1.017 1.063c-.462.23-1 .346-1.617.346-1.062 0-1.886-.33-2.471-.993-.434-.516-.703-1.201-.806-2.056h8.89a6.81 6.81 0 0 0 .093-1.155c0-1.17-.239-2.194-.716-3.072a5.009 5.009 0 0 0-2.01-2.033c-.862-.492-1.879-.739-3.049-.739-1.232 0-2.31.262-3.234.786a5.497 5.497 0 0 0-2.171 2.148c-.508.908-.762 1.963-.762 3.164s.254 2.264.762 3.188a5.656 5.656 0 0 0 2.171 2.171zm6.052-6.49h-5.98c.127-.72.38-1.304.76-1.756.585-.678 1.37-1.016 2.356-1.016.908 0 1.617.277 2.125.831.42.458.666 1.105.74 1.94z" clip-rule="evenodd"/><path d="M50.666 21.264V4.634h2.91v16.63h-2.91zM36.836 4.633v16.631h3.003V14.59h7.784v-2.38H39.84V7.013h8.339v-2.38H36.836z"/></g><defs><clipPath id="a"><path fill="#fff" d="M0 0h107.174v26H0z"/></clipPath><clipPath id="b"><path fill="#fff" d="M0 0h26v26H0z"/></clipPath></defs></svg>