<svg xmlns="http://www.w3.org/2000/svg" width="109" height="26" fill="none"><g clip-path="url(#a)"><g fill="#A7A7A7" clip-path="url(#b)"><path d="M9.664 0h8.211C22.636 0 26 3.82 26 8.531h-7.715c-4.76 0-8.62-3.82-8.62-8.531zM7.92 16.25C3.272 16.25 0 12.521 0 7.922 0 3.322 3.272 0 7.92 0h.205v16.25H7.92zM17.875 26V9.75h.205c4.648 0 7.92 3.729 7.92 8.328 0 4.6-3.272 7.922-7.92 7.922h-.205zM0 17.469h7.714c4.762 0 8.621 3.82 8.621 8.531h-8.21C3.364 26 0 22.18 0 17.469z"/></g></g><path fill="#A7A7A7" d="M98.98 24.467c-.356 0-.686-.03-.989-.087a3.665 3.665 0 0 1-.714-.187l.606-2.034c.38.11.72.163 1.017.158.298-.005.56-.098.786-.281.231-.178.426-.476.585-.895l.223-.598-4.017-11.31h2.77L101.8 17.6h.115l2.561-8.368h2.777l-4.436 12.422a4.99 4.99 0 0 1-.822 1.507 3.35 3.35 0 0 1-1.255.967c-.491.226-1.078.339-1.76.339zM95.307 9.232v2.02h-6.55v-2.02h6.55zm-4.912 11.08V8.186c0-.745.154-1.365.462-1.86a2.92 2.92 0 0 1 1.255-1.111 4.068 4.068 0 0 1 1.746-.368c.452 0 .853.036 1.204.108.351.072.61.137.78.195l-.52 2.02a4.517 4.517 0 0 0-.419-.102 2.53 2.53 0 0 0-.562-.057c-.486 0-.83.117-1.032.353-.197.23-.295.563-.295.996v11.952h-2.619zm-5.99 0V9.232h2.611v11.08h-2.61zM85.718 7.66c-.414 0-.77-.137-1.068-.411a1.325 1.325 0 0 1-.447-1.003c0-.394.15-.728.447-1.002a1.509 1.509 0 0 1 1.068-.419c.418 0 .774.14 1.067.419.299.274.448.608.448 1.002 0 .39-.15.724-.448 1.003a1.506 1.506 0 0 1-1.067.411zM82.22 9.233v2.02h-6.368v-2.02h6.369zm-4.796-2.655h2.611V16.98c0 .35.053.62.159.808a.86.86 0 0 0 .433.375c.178.067.375.1.591.1.164 0 .313-.011.447-.036a4.02 4.02 0 0 0 .318-.064l.44 2.04c-.14.049-.34.102-.599.16a4.9 4.9 0 0 1-.938.1c-.654.02-1.243-.079-1.767-.295a2.749 2.749 0 0 1-1.248-1.024c-.303-.462-.452-1.04-.447-1.732V6.578zM68.04 20.313V9.232h2.53v1.846h.116c.202-.64.548-1.132 1.039-1.478a2.859 2.859 0 0 1 1.695-.527c.144 0 .305.007.483.022.183.01.335.026.455.05v2.402a2.74 2.74 0 0 0-.527-.1 4.84 4.84 0 0 0-.685-.051 2.64 2.64 0 0 0-1.284.31c-.375.202-.67.483-.887.844-.216.36-.325.777-.325 1.248v6.514h-2.61zm-8.48.222c-.703 0-1.335-.125-1.898-.375-.558-.255-1-.63-1.327-1.125-.322-.495-.483-1.106-.483-1.832 0-.625.115-1.142.346-1.551a2.68 2.68 0 0 1 .945-.981c.399-.245.849-.43 1.349-.555.505-.13 1.026-.224 1.565-.282.65-.067 1.176-.127 1.58-.18.404-.058.697-.144.88-.26.187-.12.28-.305.28-.555v-.043c0-.544-.16-.965-.482-1.263-.323-.298-.787-.447-1.392-.447-.64 0-1.147.14-1.523.418-.37.28-.62.609-.75.989l-2.438-.347c.193-.673.51-1.236.952-1.688a4.142 4.142 0 0 1 1.623-1.024 6.208 6.208 0 0 1 2.121-.346 6.91 6.91 0 0 1 1.594.187 4.485 4.485 0 0 1 1.45.62c.438.285.789.672 1.053 1.162.27.49.404 1.104.404 1.84v7.415H62.9V18.79h-.087a3.186 3.186 0 0 1-.67.865 3.226 3.226 0 0 1-1.075.642c-.428.159-.93.238-1.508.238zm.677-1.918c.524 0 .979-.104 1.363-.31a2.3 2.3 0 0 0 .888-.837 2.14 2.14 0 0 0 .317-1.133v-1.305c-.082.067-.221.13-.418.187a5.91 5.91 0 0 1-.65.152c-.24.043-.478.081-.714.115l-.613.087c-.39.053-.738.14-1.046.26a1.74 1.74 0 0 0-.728.504c-.178.212-.267.486-.267.823 0 .48.175.843.527 1.089.35.245.798.368 1.341.368zM54.19 9.233v2.02h-6.37v-2.02h6.37zm-4.797-2.655h2.611V16.98c0 .35.053.62.159.808a.86.86 0 0 0 .433.375c.177.067.375.1.591.1.163 0 .313-.011.447-.036a3.9 3.9 0 0 0 .318-.064l.44 2.04a5.67 5.67 0 0 1-.6.16 4.902 4.902 0 0 1-.937.1c-.654.02-1.243-.079-1.767-.295a2.75 2.75 0 0 1-1.248-1.024c-.303-.462-.452-1.04-.447-1.732V6.578zM43.609 9.6c-.067-.63-.351-1.12-.851-1.472-.495-.35-1.14-.526-1.933-.526-.558 0-1.037.084-1.436.252-.399.169-.704.397-.916.686-.211.288-.32.618-.324.988 0 .308.07.574.209.8.144.227.339.419.584.578.245.153.517.283.815.39.298.105.599.194.902.266l1.385.346c.558.13 1.094.306 1.608.527.52.221.984.5 1.392.836a3.7 3.7 0 0 1 .981 1.22c.24.476.361 1.033.361 1.673 0 .866-.221 1.628-.664 2.287-.442.654-1.081 1.166-1.918 1.536-.832.366-1.84.548-3.023.548-1.149 0-2.147-.178-2.993-.534-.842-.355-1.5-.875-1.976-1.558-.472-.683-.727-1.514-.765-2.495h2.633c.038.514.197.942.476 1.284a2.52 2.52 0 0 0 1.089.764 4.3 4.3 0 0 0 1.515.253c.582 0 1.091-.087 1.529-.26.442-.178.789-.423 1.039-.736.25-.317.377-.688.382-1.11-.005-.385-.118-.703-.339-.953-.221-.255-.531-.466-.93-.635a8.967 8.967 0 0 0-1.386-.461l-1.68-.433c-1.217-.313-2.179-.786-2.886-1.421-.702-.64-1.053-1.488-1.053-2.546 0-.87.236-1.633.707-2.287.476-.654 1.123-1.161 1.94-1.522.818-.365 1.744-.548 2.778-.548 1.048 0 1.967.183 2.755.548.794.36 1.416.863 1.868 1.508.453.64.686 1.375.7 2.207H43.61z"/><defs><clipPath id="a"><path fill="#fff" d="M0 0h26v26H0z"/></clipPath><clipPath id="b"><path fill="#fff" d="M0 0h26v26H0z"/></clipPath></defs></svg>