<svg xmlns="http://www.w3.org/2000/svg" width="124" height="24" fill="none"><g clip-path="url(#a)"><path fill="#A7A7A7" d="m24 7 .002-3L20 0H.001v7H13L0 18.5 4.904 24 17.5 12.5l-.498.455V24h7v-6.049L17.5 12.5 24 7z"/></g><path fill="#A7A7A7" d="M38.477 18H36.22V7.233h-3.797V5.317h9.844v1.916h-3.788V18zm10.354-1.107c-.814.86-1.91 1.292-3.287 1.292s-2.473-.431-3.287-1.292c-.815-.868-1.222-2.051-1.222-3.551 0-1.494.41-2.675 1.23-3.542.82-.873 1.914-1.31 3.279-1.31 1.371 0 2.464.437 3.278 1.31.82.867 1.23 2.048 1.23 3.542 0 1.5-.407 2.683-1.22 3.55zm-4.957-1.257c.41.545.967.817 1.67.817s1.26-.272 1.67-.817c.41-.545.615-1.31.615-2.294 0-.979-.205-1.74-.615-2.285-.41-.551-.967-.827-1.67-.827-.697 0-1.254.276-1.67.827-.41.545-.615 1.306-.615 2.285 0 .984.205 1.749.615 2.294zm11.066 2.513c-1.178 0-2.119-.433-2.822-1.3-.697-.868-1.046-2.04-1.046-3.516 0-1.47.349-2.64 1.046-3.507.703-.867 1.644-1.3 2.822-1.3.656 0 1.236.155 1.74.465.51.31.89.73 1.142 1.257h.053v-4.93h2.188V18H57.92v-1.59h-.035a2.988 2.988 0 0 1-1.17 1.274c-.515.31-1.107.465-1.774.465zm.659-7.822c-.703 0-1.26.273-1.67.818-.41.539-.616 1.271-.616 2.197 0 .931.203 1.667.607 2.206.41.539.97.808 1.679.808.691 0 1.245-.272 1.66-.817.417-.545.625-1.277.625-2.197 0-.914-.208-1.644-.624-2.189-.416-.55-.97-.826-1.661-.826zm13.71 6.566c-.814.86-1.91 1.292-3.287 1.292s-2.472-.431-3.287-1.292c-.814-.868-1.221-2.051-1.221-3.551 0-1.494.41-2.675 1.23-3.542.82-.873 1.913-1.31 3.278-1.31 1.372 0 2.464.437 3.279 1.31.82.867 1.23 2.048 1.23 3.542 0 1.5-.407 2.683-1.221 3.55zm-4.956-1.257c.41.545.966.817 1.67.817.703 0 1.26-.272 1.67-.817.41-.545.615-1.31.615-2.294 0-.979-.206-1.74-.616-2.285-.41-.551-.966-.827-1.67-.827-.697 0-1.253.276-1.67.827-.41.545-.615 1.306-.615 2.285 0 .984.205 1.749.616 2.294zM74.425 18h-2.268V5.317h8.086v1.916h-5.818v3.744h5.317v1.846h-5.317V18zm15.513-9.316V18h-2.11v-1.617h-.044c-.515 1.19-1.465 1.784-2.848 1.784-1.013 0-1.819-.308-2.417-.923-.591-.621-.887-1.468-.887-2.54v-6.02h2.188v5.58c0 .669.159 1.178.475 1.53.322.351.79.527 1.406.527.627 0 1.125-.205 1.494-.615.37-.41.554-.955.554-1.635V8.684h2.189zm1.626 2.671c0-.855.345-1.546 1.037-2.074.691-.527 1.602-.79 2.733-.79 1.09 0 1.975.269 2.654.808.686.533 1.043 1.23 1.073 2.092h-2.04c-.035-.405-.205-.721-.51-.95-.304-.228-.711-.342-1.221-.342-.48 0-.867.105-1.16.316-.293.205-.44.478-.44.817 0 .516.446.882 1.336 1.1l1.662.368c.931.217 1.596.522 1.995.914.398.393.597.935.597 1.626 0 .88-.369 1.591-1.107 2.136-.738.539-1.696.809-2.874.809-1.16 0-2.095-.264-2.804-.791-.703-.534-1.093-1.246-1.169-2.136h2.154c.064.428.257.756.58.984.328.229.767.343 1.318.343.533 0 .952-.1 1.257-.299.31-.205.466-.48.466-.826a.785.785 0 0 0-.29-.642c-.188-.164-.507-.304-.959-.421L94.157 14c-1.728-.404-2.593-1.286-2.593-2.646zM100.73 18V8.684h2.189V18h-2.189zm1.952-10.88a1.19 1.19 0 0 1-.862.342c-.34 0-.627-.114-.861-.343a1.153 1.153 0 0 1-.352-.844c0-.334.118-.615.352-.843a1.17 1.17 0 0 1 .861-.352c.34 0 .627.117.862.352.24.228.36.51.36.843 0 .329-.12.61-.36.844zm9.483 9.773c-.814.86-1.91 1.292-3.287 1.292s-2.473-.431-3.287-1.292c-.815-.868-1.222-2.051-1.222-3.551 0-1.494.41-2.675 1.231-3.542.82-.873 1.913-1.31 3.278-1.31 1.371 0 2.464.437 3.278 1.31.821.867 1.231 2.048 1.231 3.542 0 1.5-.408 2.683-1.222 3.55zm-4.957-1.257c.41.545.967.817 1.67.817s1.26-.272 1.67-.817c.41-.545.615-1.31.615-2.294 0-.979-.205-1.74-.615-2.285-.41-.551-.967-.827-1.67-.827-.697 0-1.254.276-1.67.827-.41.545-.615 1.306-.615 2.285 0 .984.205 1.749.615 2.294zM114.793 18V8.684h2.101v1.6h.044a2.963 2.963 0 0 1 1.124-1.31c.499-.31 1.099-.466 1.802-.466 1.02 0 1.811.307 2.373.923.569.615.853 1.465.853 2.549V18h-2.189v-5.581c0-.668-.158-1.178-.474-1.53-.311-.35-.774-.527-1.389-.527-.627 0-1.128.205-1.503.615-.369.41-.554.953-.554 1.627V18h-2.188z"/><defs><clipPath id="a"><path fill="#fff" d="M0 0h24v24H0z"/></clipPath></defs></svg>