<svg xmlns="http://www.w3.org/2000/svg" width="119" height="26" fill="none"><path fill="#A7A7A7" d="M25 1v7.135H9.951a1.946 1.946 0 0 0-1.946 1.946v14.14h1.038c0-8.382 6.796-15.178 15.179-15.178H25v7.012c-4.872 0-8.951 3.943-8.951 8.815V25H1v-8.402c0-.684.27-1.34.752-1.827L14.639 1.768A2.595 2.595 0 0 1 16.482 1H25zm82.705 22.797 2.679-6.009.467-.771 2.923-7.734h2.72l-6.191 14.514h-2.598zm2.294-4.263-4.202-10.25h2.781l3.511 9.296-2.09.954zm-9.686.101V8.33c0-1.137.311-2.003.934-2.598.636-.61 1.583-.914 2.841-.914.285 0 .521.014.711.041.189.027.372.068.548.122V6.97a1.226 1.226 0 0 0-.366-.081 2.846 2.846 0 0 0-.507-.04c-.541 0-.947.135-1.218.405-.257.257-.386.636-.386 1.137v11.245h-2.557zm-1.868-8.342v-2.01h6.679v2.01h-6.679zm-4.112 8.343V9.283h2.557v10.353h-2.557zM94.21 7.578V4.757h2.78v2.821h-2.78zm-3.42 12.261c-1.272 0-2.213-.298-2.822-.893-.595-.61-.893-1.516-.893-2.72V6.928l2.578-.954v10.311c0 .501.135.873.406 1.117.27.243.697.365 1.279.365.23 0 .433-.013.609-.04.19-.041.365-.088.528-.143v1.99c-.163.08-.393.142-.69.182-.298.055-.63.082-.995.082zm-5.704-8.546v-2.01h7.389v2.01h-7.39zm-10.992 8.342V9.283h2.497v2.436h.06v7.916h-2.557zm7.267 0V13.1c0-.636-.163-1.116-.487-1.441-.325-.325-.799-.487-1.421-.487-.542 0-1.029.122-1.462.365-.42.244-.751.582-.995 1.015-.23.433-.345.934-.345 1.502l-.263-2.476A4.273 4.273 0 0 1 77.93 9.77c.677-.46 1.489-.69 2.436-.69 1.123 0 1.996.318 2.619.954.636.636.954 1.482.954 2.537v7.064H81.36zm-14.221.203c-1.096 0-2.057-.23-2.882-.69a4.972 4.972 0 0 1-1.908-1.908c-.447-.812-.67-1.745-.67-2.801s.223-1.983.67-2.781a4.83 4.83 0 0 1 1.908-1.888c.812-.46 1.759-.69 2.841-.69 1.029 0 1.922.217 2.68.65a4.402 4.402 0 0 1 1.766 1.786c.42.771.63 1.671.63 2.7a5.957 5.957 0 0 1-.081 1.015h-8.831v-1.787h6.86l-.527.487c0-.974-.223-1.705-.67-2.192-.446-.487-1.069-.73-1.867-.73-.866 0-1.556.297-2.07.893-.501.595-.752 1.454-.752 2.578 0 1.11.25 1.962.751 2.557.515.582 1.239.873 2.172.873.542 0 1.015-.102 1.421-.305.406-.203.704-.514.893-.933h2.416c-.338.974-.913 1.745-1.725 2.314-.799.568-1.807.852-3.025.852zM54.43 24c-1.366 0-2.49-.298-3.369-.893-.866-.596-1.38-1.401-1.542-2.416h2.435c.122.352.386.622.792.812.42.203.96.304 1.624.304.96 0 1.671-.216 2.131-.65.46-.419.69-1.061.69-1.928v-2.232l.183.04c-.162.758-.575 1.367-1.238 1.827-.663.447-1.475.67-2.436.67-.92 0-1.725-.217-2.416-.65-.676-.433-1.204-1.035-1.583-1.806-.379-.785-.568-1.699-.568-2.74 0-1.056.196-1.976.588-2.761.393-.785.941-1.394 1.645-1.827.717-.447 1.55-.67 2.496-.67.975 0 1.773.237 2.396.71.636.46 1.028 1.103 1.177 1.929l-.162.02V9.283h2.496v9.926c0 1.475-.48 2.639-1.44 3.492C57.38 23.567 56.081 24 54.43 24zm.102-6.496c.826 0 1.482-.277 1.97-.832.5-.569.75-1.36.75-2.375s-.25-1.8-.75-2.355c-.502-.555-1.165-.832-1.99-.832-.812 0-1.468.284-1.969.853-.5.554-.751 1.34-.751 2.354 0 1.015.25 1.8.751 2.355.5.555 1.164.832 1.99.832zm-19.868 2.132 5.38-14.615h2.273l-5.055 14.615h-2.598zm11.022 0L40.652 5.02h2.395l5.36 14.615h-2.72zm-8.241-5.745h7.998v2.111h-7.998v-2.111z"/></svg>