<svg xmlns="http://www.w3.org/2000/svg" width="109" height="26" fill="none"><g fill="#A7A7A7" clip-path="url(#a)"><path d="M5.417 0v16.792l13 4.875L13.542 26 0 20.626V4.333L5.417 0z"/><path d="M20.583 26V9.208l-13-4.875L12.458 0 26 5.374v16.293L20.583 26z"/></g><path fill="#A7A7A7" d="m99.085 24.743 2.796-6.27.487-.804 3.05-8.07h2.838l-6.46 15.144h-2.711zm2.393-4.448L97.094 9.599h2.902l3.664 9.7-2.182.996zM91.37 20.4V8.603c0-1.186.325-2.09.975-2.711.663-.636 1.652-.954 2.965-.954.297 0 .544.015.742.043.197.028.388.07.571.127v2.076a1.273 1.273 0 0 0-.38-.085 2.978 2.978 0 0 0-.53-.042c-.565 0-.989.14-1.271.423-.269.268-.403.664-.403 1.186V20.4h-2.668zm-1.948-8.705V9.598h6.968v2.097h-6.968zM85.127 20.4V9.599h2.669v10.803h-2.669zM85 7.82V4.874h2.902v2.944H85zM79.681 20.4v-2.435l.212.042c-.184.79-.629 1.426-1.335 1.906-.706.466-1.546.7-2.52.7-.989 0-1.85-.227-2.584-.678-.72-.466-1.278-1.116-1.673-1.95-.396-.832-.594-1.813-.594-2.943 0-1.144.205-2.14.615-2.987.41-.847.981-1.503 1.715-1.97.749-.465 1.617-.698 2.606-.698 1.016 0 1.856.247 2.52.74.664.481 1.073 1.152 1.229 2.013l-.276.021v-7.01h2.69V20.4h-2.605zm-2.86-1.97c.862 0 1.547-.296 2.055-.889.523-.607.784-1.454.784-2.542 0-1.087-.261-1.927-.784-2.52-.522-.593-1.214-.89-2.076-.89-.847 0-1.532.304-2.054.911-.523.593-.784 1.433-.784 2.52 0 1.088.261 1.928.784 2.521.522.593 1.214.89 2.076.89zM59 20.4V9.6h2.605v2.541h.064v8.26H59zm7.583 0v-6.82c0-.663-.17-1.164-.509-1.503-.338-.34-.833-.509-1.482-.509-.565 0-1.073.127-1.525.382a2.77 2.77 0 0 0-1.038 1.059c-.24.451-.36.974-.36 1.567l-.276-2.584c.368-.79.904-1.42 1.61-1.885.706-.48 1.553-.72 2.542-.72 1.172 0 2.083.332 2.732.995.664.664.996 1.546.996 2.648v7.37h-2.69zm-12.651 0a7.894 7.894 0 0 1-.17-.931 15.138 15.138 0 0 1-.041-1.229h-.085v-5.125c0-.565-.163-.989-.487-1.271-.311-.297-.791-.445-1.44-.445-.636 0-1.144.12-1.526.36a1.437 1.437 0 0 0-.677.995h-2.563c.113-1.002.593-1.814 1.44-2.435.847-.622 1.984-.932 3.41-.932 1.483 0 2.605.339 3.368 1.016.762.664 1.144 1.645 1.144 2.944v4.893c0 .34.02.685.063 1.038.057.353.134.727.233 1.123h-2.669zm-3.749.213c-1.087 0-1.955-.269-2.605-.805-.635-.551-.953-1.285-.953-2.203 0-.989.36-1.772 1.08-2.351.72-.58 1.737-.967 3.05-1.165l3.368-.508v1.694l-2.923.445c-.635.099-1.116.275-1.44.53-.31.253-.466.607-.466 1.058 0 .41.148.727.445.954.296.211.706.317 1.228.317.763 0 1.398-.19 1.906-.572.509-.381.763-.847.763-1.398l.296 1.631c-.282.777-.748 1.37-1.398 1.78-.635.395-1.419.593-2.35.593zm-15.05-.213V5.15h2.753V20.4h-2.753zm1.313 0v-2.18h8.938v2.18h-8.938z"/><defs><clipPath id="a"><path fill="#fff" d="M0 0h26v26H0z"/></clipPath></defs></svg>