<svg xmlns="http://www.w3.org/2000/svg" width="153" height="26" fill="none"><path fill="#A7A7A7" d="M35.75 4.333v17.096h3.087v-6.862h8.002V12.12h-8.002V6.78h8.571V4.333H35.75zm14.217 17.096V4.333h2.992v17.096h-2.992z"/><path fill="#A7A7A7" fill-rule="evenodd" d="M93.052 20.859c.744.538 1.694.807 2.85.807 1.123 0 2.097-.26 2.92-.783s1.464-1.259 1.923-2.208c.459-.95.689-2.066.689-3.348 0-1.267-.222-2.367-.665-3.3-.443-.935-1.068-1.655-1.876-2.162-.791-.522-1.725-.783-2.802-.783-1.14 0-2.097.261-2.873.783a3.421 3.421 0 0 0-1.234 1.479V4.333h-2.992v17.096h2.92v-2.08a3.439 3.439 0 0 0 1.14 1.51zm4.393-2.66c-.57.665-1.338.998-2.303.998-.966 0-1.742-.332-2.327-.997-.586-.665-.879-1.607-.879-2.826s.293-2.16.879-2.825c.585-.681 1.353-1.021 2.303-1.021.966 0 1.733.332 2.303.997.586.665.879 1.607.879 2.825 0 1.22-.285 2.169-.855 2.85zm51.435 3.23V19.44c-.266.572-.686 1.053-1.259 1.443-.791.522-1.733.783-2.825.783-1.108 0-2.074-.253-2.897-.76-.807-.522-1.433-1.25-1.876-2.184-.443-.934-.665-2.034-.665-3.3 0-1.283.23-2.399.689-3.348.459-.95 1.1-1.686 1.923-2.209.839-.522 1.813-.783 2.921-.783 1.14 0 2.081.277 2.825.83.47.34.826.766 1.069 1.276V4.333h3.015v17.096h-2.92zm-3.206-2.208c.966 0 1.734-.333 2.304-.998.585-.68.878-1.63.878-2.849 0-1.219-.293-2.16-.878-2.825-.586-.665-1.362-.998-2.327-.998-.95 0-1.718.34-2.304 1.021-.585.665-.878 1.607-.878 2.826s.293 2.16.878 2.825c.586.665 1.362.998 2.327.998z" clip-rule="evenodd"/><path fill="#A7A7A7" d="M131.263 21.429V9.319h2.921v2.227c.289-.695.692-1.247 1.211-1.657.68-.538 1.496-.807 2.445-.807.333 0 .57.032.713.095v2.825a.925.925 0 0 0-.333-.047 4.834 4.834 0 0 0-.522-.024c-1.156 0-2.018.253-2.588.76-.57.506-.855 1.314-.855 2.422v6.316h-2.992z"/><path fill="#A7A7A7" fill-rule="evenodd" d="M125.384 20.384c.047.38.111.728.19 1.045h2.991c-.11-.443-.197-.863-.261-1.259a9.862 9.862 0 0 1-.071-1.163v-5.485c0-1.456-.427-2.556-1.282-3.3-.855-.76-2.113-1.14-3.775-1.14-1.599 0-2.874.348-3.823 1.045-.95.696-1.488 1.606-1.615 2.73h2.873a1.61 1.61 0 0 1 .76-1.116c.427-.269.997-.403 1.71-.403.728 0 1.266.166 1.614.498.364.317.546.792.546 1.425v.605l-3.229.487c-1.472.222-2.612.657-3.419 1.306-.807.649-1.211 1.528-1.211 2.636 0 1.029.356 1.852 1.068 2.469.729.602 1.702.902 2.921.902 1.045 0 1.923-.221 2.636-.665a3.711 3.711 0 0 0 1.335-1.463c.007.316.021.598.042.846zm-.143-3.205v-1.413l-2.73.415c-.713.111-1.251.31-1.615.594-.348.285-.522.68-.522 1.187 0 .46.166.815.498 1.069.333.237.792.356 1.378.356.854 0 1.567-.214 2.137-.641.569-.428.854-.95.854-1.567zm-15.831 4.487c-1.282 0-2.414-.269-3.395-.807a5.767 5.767 0 0 1-2.256-2.232c-.538-.965-.807-2.066-.807-3.3 0-1.235.269-2.32.807-3.253a5.65 5.65 0 0 1 2.256-2.185c.981-.538 2.113-.807 3.395-.807 1.298 0 2.43.269 3.396.807a5.663 5.663 0 0 1 2.256 2.185c.538.934.807 2.018.807 3.253 0 1.234-.277 2.335-.831 3.3a5.767 5.767 0 0 1-2.256 2.232c-.966.538-2.089.807-3.372.807zm0-2.398a3.16 3.16 0 0 0 1.71-.475 3.372 3.372 0 0 0 1.187-1.377c.285-.601.428-1.306.428-2.113 0-1.187-.317-2.121-.95-2.802-.618-.68-1.409-1.021-2.375-1.021-.965 0-1.765.34-2.398 1.021-.633.68-.95 1.615-.95 2.802 0 .807.143 1.512.428 2.113.301.586.696 1.045 1.187 1.377.507.317 1.084.475 1.733.475z" clip-rule="evenodd"/><path fill="#A7A7A7" d="M72.494 21.429 68.79 9.319h3.134l2.089 8.695 2.565-8.695h2.73l2.599 8.653 2.056-8.653h3.063l-3.704 12.11H80.52l-2.612-8.608-2.612 8.608h-2.802z"/><path fill="#A7A7A7" fill-rule="evenodd" d="M58.248 20.859c.982.538 2.113.807 3.396.807 1.282 0 2.406-.269 3.371-.807a5.77 5.77 0 0 0 2.256-2.232c.554-.965.831-2.066.831-3.3 0-1.235-.27-2.32-.807-3.253a5.655 5.655 0 0 0-2.256-2.185c-.966-.538-2.098-.807-3.395-.807-1.283 0-2.414.269-3.396.807a5.654 5.654 0 0 0-2.256 2.185c-.538.934-.807 2.018-.807 3.253 0 1.234.27 2.335.807 3.3a5.77 5.77 0 0 0 2.256 2.232zm5.105-2.066a3.159 3.159 0 0 1-1.71.475c-.648 0-1.226-.158-1.733-.475-.49-.332-.886-.791-1.187-1.377-.285-.601-.427-1.306-.427-2.113 0-1.187.316-2.121.95-2.802.633-.68 1.432-1.021 2.398-1.021.965 0 1.757.34 2.374 1.021.633.68.95 1.615.95 2.802 0 .807-.143 1.512-.428 2.113a3.368 3.368 0 0 1-1.187 1.377z" clip-rule="evenodd"/><path fill="#A7A7A7" d="M1 1h11.46v11.46C6.132 12.46 1 7.33 1 1zm0 12.54h11.46V25C6.132 25 1 19.869 1 13.54zM25 1a5.73 5.73 0 0 1-11.46 0H25zm0 12.54a5.73 5.73 0 1 1-11.46 0H25z"/></svg>