<svg xmlns="http://www.w3.org/2000/svg" width="106" height="26" fill="none"><g clip-path="url(#a)"><path fill="#A7A7A7" d="M90.463 9.159c0-1.738.934-2.52 2.801-2.346V4.348c-1.757-.11-3.094.26-4.011 1.114-.903.837-1.353 2.07-1.353 3.697v.237h-1.805v2.464H87.9v9.385h2.563V11.86h2.801V9.396h-2.8v-.237zm15.49.237h-2.73l-3.038 8.602-3.537-8.602h-2.8l5.031 11.635-.118.237c-.317.822-.72 1.422-1.21 1.801-.491.395-1.14.57-1.947.522v2.393c2.722.158 4.652-1.295 5.792-4.36l4.557-12.228zM83.926 7.145a1.555 1.555 0 0 1-1.14.474c-.443 0-.83-.158-1.163-.474a1.63 1.63 0 0 1-.474-1.162c0-.442.158-.821.474-1.137a1.545 1.545 0 0 1 1.163-.498c.46 0 .847.166 1.164.498.316.316.474.695.474 1.137 0 .443-.166.83-.498 1.162zm-2.421 14.1V9.395h2.563v11.85h-2.563z"/><path fill="#A7A7A7" fill-rule="evenodd" d="M78.515 4.656H75.95v6.422c-.965-1.327-2.35-1.99-4.154-1.99-1.63 0-3.023.6-4.178 1.8-1.155 1.201-1.733 2.678-1.733 4.432 0 1.738.578 3.215 1.733 4.432 1.155 1.2 2.548 1.8 4.178 1.8 1.804 0 3.189-.67 4.154-2.014v1.707h2.564V4.656zM72.2 19.112c-1.077 0-1.97-.356-2.683-1.067-.712-.726-1.068-1.635-1.068-2.725s.356-1.99 1.068-2.702c.712-.726 1.606-1.09 2.683-1.09 1.076 0 1.97.364 2.682 1.09.712.711 1.068 1.612 1.068 2.702 0 1.09-.356 1.999-1.068 2.725-.712.711-1.606 1.067-2.682 1.067zm-14.234 2.441c-1.74 0-3.22-.6-4.438-1.801-1.22-1.2-1.828-2.678-1.828-4.432 0-1.753.609-3.23 1.828-4.431 1.218-1.2 2.698-1.801 4.438-1.801 1.757 0 3.236.6 4.44 1.8 1.218 1.201 1.827 2.679 1.827 4.432 0 1.754-.61 3.231-1.828 4.432-1.203 1.2-2.682 1.8-4.439 1.8zm-2.635-3.555c.713.711 1.59 1.067 2.635 1.067 1.045 0 1.923-.356 2.635-1.067.712-.71 1.068-1.603 1.068-2.678 0-1.074-.356-1.967-1.068-2.678-.712-.71-1.59-1.066-2.635-1.066-1.044 0-1.922.355-2.635 1.066-.712.711-1.068 1.604-1.068 2.678 0 1.075.356 1.967 1.069 2.678z" clip-rule="evenodd"/><path fill="#A7A7A7" d="M36.922 19.088c1.646 1.643 3.719 2.465 6.219 2.465 1.52 0 2.912-.356 4.178-1.067 1.281-.726 2.27-1.698 2.967-2.914l-2.374-1.351c-.427.821-1.068 1.477-1.923 1.967-.854.474-1.804.71-2.848.71-1.772 0-3.212-.56-4.32-1.682-1.092-1.122-1.638-2.543-1.638-4.265 0-1.723.546-3.144 1.638-4.266 1.108-1.122 2.548-1.683 4.32-1.683 1.044 0 1.986.245 2.825.735.854.474 1.503 1.122 1.946 1.943l2.374-1.374c-.712-1.217-1.71-2.18-2.991-2.891-1.266-.711-2.65-1.067-4.154-1.067-2.5 0-4.573.83-6.22 2.488-1.645 1.644-2.468 3.682-2.468 6.115 0 2.432.823 4.479 2.469 6.137z"/><path fill="url(#b)" d="M12.952 26 2.164 18.77l9.602-5.933 11.543 6.58L12.952 26z"/><path fill="#A7A7A7" d="m13.168 0 9.925 6.041-20.929 12.73V7.122L13.168 0z"/></g><defs><linearGradient id="b" x1="12.737" x2="-5.145" y1="33.66" y2="22.51" gradientUnits="userSpaceOnUse"><stop stop-color="#A7A7A7"/><stop offset="1" stop-color="#A7A7A7" stop-opacity="0"/></linearGradient><clipPath id="a"><path fill="#fff" d="M0 0h105.95v26H0z"/></clipPath></defs></svg>