<svg xmlns="http://www.w3.org/2000/svg" width="106" height="26" fill="none"><path fill="#A7A7A7" fill-opacity=".5" d="M10.829.813a.15.15 0 0 0-.15.149v8.574L3.206 5.285a.149.149 0 0 0-.204.055L.842 9.084a.145.145 0 0 0-.02.068.16.16 0 0 0 .011.065.148.148 0 0 0 .063.07l7.484 4.237 4.547-2.625a.15.15 0 0 1 .149 0l4.547 2.625 7.444-4.237a.15.15 0 0 0 .055-.203L22.959 5.34a.15.15 0 0 0-.204-.055l-7.454 4.257V.962a.149.149 0 0 0-.149-.15H10.83z"/><path fill="#A7A7A7" d="m15.3 17.521 7.495 4.327a.149.149 0 0 0 .204-.054l2.162-3.744a.15.15 0 0 0-.055-.204L13.075 10.9a.15.15 0 0 0-.15 0L.896 17.846a.149.149 0 0 0-.054.204L3 21.793a.149.149 0 0 0 .204.054l7.474-4.315v7.505a.15.15 0 0 0 .15.15h4.323c.083 0 .15-.066.15-.149v-4.323l-.001-.014v-3.18zm81.166 5.976 2.574-5.772.448-.74 2.808-7.43h2.613l-5.947 13.942h-2.496zm2.203-4.095-4.036-9.847h2.671l3.374 8.93-2.009.917zm-9.297.098V8.638c0-1.092.3-1.924.897-2.496.611-.585 1.521-.877 2.73-.877.273 0 .5.013.683.039.182.026.357.065.526.117v1.91a1.172 1.172 0 0 0-.35-.077 2.743 2.743 0 0 0-.488-.04c-.52 0-.91.13-1.17.39-.247.248-.37.612-.37 1.093V19.5h-2.458zm-1.794-8.015v-1.93h6.416v1.93h-6.416zM83.617 19.5V9.555h2.457V19.5h-2.457zM83.5 7.917v-2.71h2.671v2.71H83.5zm-3.278 11.778c-1.222 0-2.126-.287-2.71-.858-.573-.585-.859-1.456-.859-2.613V7.292l2.477-.916v9.906c0 .481.13.838.39 1.073.26.233.67.35 1.228.35.221 0 .416-.012.585-.038.182-.04.351-.085.507-.137v1.911c-.156.078-.377.137-.663.175a5.362 5.362 0 0 1-.955.079zm-5.48-8.21v-1.93h7.098v1.93h-7.098zM64.172 19.5V9.553h2.398v2.34h.059V19.5h-2.457zm6.98 0v-6.28c0-.61-.155-1.072-.467-1.384-.312-.312-.767-.468-1.365-.468-.52 0-.988.117-1.404.35a2.55 2.55 0 0 0-.956.976c-.22.416-.331.897-.331 1.443l-.254-2.38a4.105 4.105 0 0 1 1.482-1.735c.65-.442 1.43-.663 2.34-.663 1.08 0 1.918.306 2.516.917.61.61.916 1.423.916 2.437V19.5h-2.476zm-13.649.194c-1.053 0-1.976-.22-2.769-.663a4.776 4.776 0 0 1-1.833-1.833c-.429-.78-.643-1.677-.643-2.69 0-1.015.214-1.905.643-2.672a4.64 4.64 0 0 1 1.833-1.814c.78-.442 1.69-.663 2.73-.663.988 0 1.846.208 2.574.624a4.229 4.229 0 0 1 1.697 1.716c.403.741.604 1.606.604 2.594a5.75 5.75 0 0 1-.078.975H53.78v-1.716h6.59l-.506.468c0-.936-.215-1.638-.644-2.106-.429-.468-1.027-.702-1.794-.702-.832 0-1.495.286-1.989.858-.48.572-.721 1.397-.721 2.476 0 1.066.24 1.885.721 2.457.494.56 1.19.839 2.087.839.52 0 .975-.098 1.365-.293.39-.195.676-.494.858-.897h2.32c-.325.936-.877 1.677-1.657 2.223-.767.546-1.736.82-2.906.82zm-9.48-.194v-2.242l.195.039c-.17.727-.579 1.313-1.229 1.755-.65.428-1.423.643-2.32.643-.91 0-1.703-.208-2.38-.624-.662-.429-1.176-1.027-1.54-1.794-.364-.767-.546-1.67-.546-2.71 0-1.053.189-1.97.566-2.75.377-.78.903-1.385 1.58-1.813.688-.43 1.488-.644 2.398-.644.936 0 1.71.227 2.32.683.611.442.988 1.059 1.131 1.852l-.253.02V5.46h2.476V19.5h-2.398zm-2.633-1.814c.793 0 1.424-.273 1.892-.819.48-.559.721-1.339.721-2.34 0-1-.24-1.774-.721-2.32-.481-.546-1.118-.819-1.911-.819-.78 0-1.41.28-1.892.838-.48.546-.721 1.32-.721 2.321 0 1.001.24 1.774.721 2.32.481.546 1.118.82 1.911.82zM35.875 19.5V5.46h2.535V19.5h-2.535z"/></svg>